<?xml version="1.0" encoding="utf-8"?>
<!-- Generator: Adobe Illustrator 24.0.1, SVG Export Plug-In . SVG Version: 6.00 Build 0)  -->
<svg version="1.1" id="Camada_1" xmlns="http://www.w3.org/2000/svg" xmlns:xlink="http://www.w3.org/1999/xlink" x="0px" y="0px"
	 viewBox="0 0 1080 1080" style="enable-background:new 0 0 1080 1080;" xml:space="preserve">
<style type="text/css">
	.st0{fill:#FFFFFF;}
</style>
<g>
	<path class="st0" d="M220.64,897.35c-23.67-22.09-34.37-52.53-32.07-82.43c1.72-22.54,10.75-44.76,27.1-62.87l366.35-405.42H310.97
		c-52.94,0-95.84-42.91-95.84-95.84c0-52.89,42.91-95.8,95.84-95.8H781.3c27.69,0,56.14,6.87,78.05,27.28
		c27.06,25.25,37.13,61.43,30.35,95.21c-3.61,18.07-12.06,35.46-25.34,50.14L497.92,733.12h296.66c52.94,0,95.8,42.91,95.8,95.8
		c0,52.94-42.91,95.84-95.8,95.84h-496.7C270.45,926.67,242.32,917.63,220.64,897.35"/>
</g>
</svg>